# xmcd
#
# Track frame offsets:
#	150
#	16367
#	33183
#	52607
#	74201
#	91049
#	108123
#	121949
#	143649
#	158281
#
# Disc length: 2363 seconds
#
# Revision: 1
# Processed by: cddbd v1.5.2PL0 Copyright (c) Steve Scherf et al.
# Submitted via: audiograbber 1.83.01
#
DISCID=6c09390a
DTITLE=Honeywagon - Michael Jackson songs from Neverland
DYEAR=1900
DGENRE=
TTITLE0=Beat It
TTITLE1=PYT
TTITLE2=Man in the Mirror
TTITLE3=Billie Jean
TTITLE4=Rock with you
TTITLE5=I'll be there
TTITLE6=Black or White
TTITLE7=Human Nature
TTITLE8=The Way you make me feel
TTITLE9=Thriller
EXTD=
EXTT0=
EXTT1=
EXTT2=
EXTT3=
EXTT4=
EXTT5=
EXTT6=
EXTT7=
EXTT8=
EXTT9=
PLAYORDER=
